<svg width="1440" height="6002" viewBox="0 0 1440 6002" fill="none" xmlns="http://www.w3.org/2000/svg">
<g clip-path="url(#clip0_93_142)">
<rect width="1440" height="6002" fill="white"/>
<rect width="1440" height="6002" fill="#8C6764" fill-opacity="0.4"/>
<g clip-path="url(#clip1_93_142)">
<path fill-rule="evenodd" clip-rule="evenodd" d="M1489.18 3232.74C1461.65 3229.66 1434.39 3240.44 1407.77 3232.81C1378.52 3224.44 1350.67 3210.37 1330.77 3187.38C1309.31 3162.59 1286.99 3131.54 1292.06 3099.16C1297.13 3066.8 1342.84 3057.09 1355.9 3027.05C1372.78 2988.25 1339.18 2923.96 1376.76 2904.46C1413.64 2885.31 1445.04 2950.92 1485.65 2959.7C1520.8 2967.31 1565.54 2925.43 1591 2950.81C1617.39 2977.12 1584.99 3023 1586.47 3060.22C1587.47 3085.34 1595.38 3108.19 1598.26 3133.16C1603.04 3174.59 1639.81 3227.14 1608.99 3255.28C1578.36 3283.24 1530.4 3237.34 1489.18 3232.74Z" fill="#8C6764"/>
<path fill-rule="evenodd" clip-rule="evenodd" d="M-58.7503 5082.06C-31.1246 5084.05 -4.30762 5072.21 22.596 5078.78C52.1526 5086 80.5334 5098.97 101.326 5121.16C123.741 5145.08 147.269 5175.23 143.469 5207.79C139.673 5240.32 94.3897 5251.82 82.5149 5282.35C67.1737 5321.78 103.279 5384.7 66.4959 5405.67C30.3965 5426.25 -3.56143 5361.93 -44.4879 5354.75C-79.9105 5348.53 -122.968 5392.13 -149.402 5367.77C-176.806 5342.52 -146.233 5295.41 -149.178 5258.27C-151.166 5233.21 -159.967 5210.69 -163.83 5185.85C-170.239 5144.64 -209.042 5093.57 -179.35 5064.25C-149.846 5035.11 -100.121 5079.08 -58.7503 5082.06Z" fill="#8C6764"/>
<path fill-rule="evenodd" clip-rule="evenodd" d="M1341.74 3540.29C1403.12 3520.82 1456.59 3587.86 1518.39 3605.94C1577.93 3623.36 1648.66 3603.73 1695.92 3643.9C1746.2 3686.64 1787.69 3757.36 1771.92 3821.44C1756.02 3886.07 1665.15 3895.01 1621.74 3945.46C1587.67 3985.04 1588.56 4045.57 1549.36 4080.07C1497.57 4125.65 1435.33 4183.74 1367.98 4168.78C1300.89 4153.89 1276.98 4071.11 1242.15 4011.87C1212.7 3961.78 1183.27 3910.84 1182.17 3852.74C1181.1 3795.93 1210.34 3746.06 1236.19 3695.44C1265.35 3638.34 1280.62 3559.67 1341.74 3540.29Z" fill="#8C4250"/>
<path fill-rule="evenodd" clip-rule="evenodd" d="M1538.8 5533.98C1500.48 5547.56 1463.09 5501.93 1422.7 5489.82C1383.8 5478.16 1339.51 5491.88 1307.37 5464.6C1273.18 5435.58 1243.27 5387.38 1250.28 5343.48C1257.35 5299.2 1315.03 5292.7 1340.38 5258.01C1360.26 5230.79 1356.8 5189.39 1380.21 5165.62C1411.15 5134.22 1448.16 5094.22 1491.95 5104.17C1535.56 5114.07 1554.8 5170.59 1579.91 5210.97C1601.14 5245.11 1622.4 5279.83 1625.88 5319.57C1629.28 5358.43 1612.97 5392.67 1598.86 5427.4C1582.95 5466.58 1576.95 5520.46 1538.8 5533.98Z" fill="#8C4250"/>
<path fill-rule="evenodd" clip-rule="evenodd" d="M67.1798 2758.74C39.6536 2755.66 12.3919 2766.44 -14.2325 2758.81C-43.4824 2750.44 -71.3314 2736.37 -91.2351 2713.38C-112.692 2688.59 -135.016 2657.54 -129.939 2625.16C-124.867 2592.8 -79.166 2583.09 -66.0999 2553.05C-49.2197 2514.25 -82.8232 2449.96 -45.2436 2430.46C-8.36285 2411.31 23.0395 2476.92 63.6519 2485.7C98.8025 2493.31 143.541 2451.43 168.997 2476.81C195.386 2503.12 162.985 2549 164.467 2586.22C165.468 2611.34 173.377 2634.19 176.26 2659.16C181.043 2700.59 217.808 2753.14 186.985 2781.28C156.359 2809.24 108.401 2763.34 67.1798 2758.74Z" fill="#8C6764"/>
<path fill-rule="evenodd" clip-rule="evenodd" d="M52.3052 1811.29C74.3738 1814.22 88.0814 1847.29 108.76 1859.25C141.229 1878.03 194.625 1851.61 206.778 1900.64C218.695 1948.72 263.257 1999.46 250.422 2047C239.169 2088.68 159.847 2123 138.317 2154.22C117.09 2185 81.7798 2175.86 52.3052 2177C-1.57852 2225.39 -48.3891 2170.05 -69.5785 2137C-91.651 2102.57 -148.685 2107.93 -159.579 2063C-171.233 2014.93 -107.625 1951.59 -99.843 1901.78C-92.3253 1853.65 -42.4677 1861.37 -11.9074 1843.19C9.58107 1830.41 29.2881 1808.22 52.3052 1811.29Z" fill="#591E2E"/>
<path fill-rule="evenodd" clip-rule="evenodd" d="M47.3013 2051.28C86.4564 2062.93 115.262 2090.3 150.601 2110.45C194.822 2135.67 256.88 2139.63 280.139 2184.04C304.076 2229.74 293.567 2289.04 267.365 2333.4C242.708 2375.15 179.952 2375.49 146.247 2410.75C93.2696 2466.17 92.5989 2571.31 18.2931 2593.94C-53.0513 2615.68 -148.288 2575.44 -183.786 2511.3C-220.446 2445.05 -142.095 2369.34 -147.48 2294.37C-151.211 2242.45 -217.855 2205.67 -209.433 2154.3C-200.73 2101.21 -155.947 2054.94 -104.866 2034.44C-56.561 2015.06 -2.76392 2036.39 47.3013 2051.28Z" fill="#F2BFBB"/>
<path fill-rule="evenodd" clip-rule="evenodd" d="M1522.18 1881.74C1494.65 1878.66 1467.39 1889.44 1440.77 1881.81C1411.52 1873.44 1383.67 1859.37 1363.77 1836.38C1342.31 1811.59 1319.99 1780.54 1325.06 1748.16C1330.13 1715.8 1375.84 1706.09 1388.9 1676.05C1405.78 1637.25 1372.18 1572.96 1409.76 1553.46C1446.64 1534.31 1478.04 1599.91 1518.65 1608.7C1553.8 1616.31 1598.54 1574.43 1624 1599.81C1650.39 1626.12 1617.99 1672 1619.47 1709.22C1620.47 1734.34 1628.38 1757.19 1631.26 1782.16C1636.04 1823.59 1672.81 1876.14 1641.99 1904.28C1611.36 1932.24 1563.4 1886.34 1522.18 1881.74Z" fill="#8C6764"/>
<path fill-rule="evenodd" clip-rule="evenodd" d="M1516.1 2196.04C1493.84 2196.57 1475.16 2166.04 1452.87 2157.44C1417.87 2143.94 1369.24 2178.34 1349.61 2131.8C1330.36 2086.16 1381.76 2050.34 1387.05 2001.38C1391.68 1958.46 1361.38 1904.85 1377.79 1870.66C1393.97 1836.95 1432.21 1852.73 1461.14 1847.02C1491.1 1841.1 1523.84 1807.32 1549.91 1836.67C1577.07 1867.25 1556.6 1931.77 1574.35 1974.46C1593.34 2020.14 1652.26 2032.57 1652.32 2082.99C1652.38 2131.7 1601.93 2131.83 1574.57 2154.54C1555.33 2170.5 1539.31 2195.49 1516.1 2196.04Z" fill="#591E2E"/>
<path fill-rule="evenodd" clip-rule="evenodd" d="M1370.74 2192.29C1432.12 2172.82 1485.59 2239.86 1547.39 2257.94C1606.93 2275.36 1677.66 2255.73 1724.92 2295.9C1775.2 2338.64 1816.69 2409.36 1800.92 2473.44C1785.02 2538.07 1694.15 2547.01 1650.74 2597.46C1616.67 2637.04 1617.56 2697.57 1578.36 2732.07C1526.57 2777.65 1464.33 2835.74 1396.98 2820.78C1329.89 2805.89 1305.98 2723.11 1271.15 2663.87C1241.7 2613.78 1212.27 2562.84 1211.17 2504.74C1210.1 2447.93 1239.34 2398.06 1265.19 2347.44C1294.35 2290.34 1309.62 2211.67 1370.74 2192.29Z" fill="#8C4250"/>
<path fill-rule="evenodd" clip-rule="evenodd" d="M1399.08 1124.58C1425.79 1131.9 1454.4 1125.5 1479.51 1137.17C1507.1 1149.99 1532.43 1168.22 1548.51 1194.03C1565.85 1221.85 1583.07 1256 1573.02 1287.2C1562.98 1318.37 1516.33 1320.85 1498.75 1348.49C1476.04 1384.2 1499.23 1452.93 1459.08 1466.35C1419.67 1479.53 1398.85 1409.84 1360.1 1394.84C1326.56 1381.86 1275.85 1416.27 1254.65 1387.24C1232.68 1357.14 1271.82 1316.87 1276.14 1279.87C1279.06 1254.9 1274.8 1231.1 1275.84 1205.98C1277.56 1164.31 1249.41 1106.68 1284.24 1083.68C1318.84 1060.82 1359.08 1113.62 1399.08 1124.58Z" fill="#8C6764"/>
<path fill-rule="evenodd" clip-rule="evenodd" d="M58.0791 1051.58C84.7923 1058.9 113.398 1052.5 138.512 1064.17C166.104 1076.99 191.425 1095.22 207.511 1121.03C224.852 1148.85 242.074 1183 232.023 1214.2C221.98 1245.37 175.325 1247.85 157.746 1275.49C135.036 1311.2 158.233 1379.93 118.076 1393.35C78.6669 1406.53 57.8498 1336.84 19.0984 1321.84C-14.4416 1308.86 -65.1486 1343.27 -86.3471 1314.24C-108.323 1284.14 -69.1815 1243.87 -64.8566 1206.87C-61.9381 1181.9 -66.1972 1158.1 -65.1609 1132.98C-63.4416 1091.31 -91.5866 1033.68 -56.7623 1010.68C-22.16 987.823 18.0751 1040.62 58.0791 1051.58Z" fill="#8C6764"/>
<path fill-rule="evenodd" clip-rule="evenodd" d="M632.019 -114.844C645.781 -113.25 654.33 -95.2993 667.225 -88.8063C687.473 -78.6114 720.771 -92.9562 728.35 -66.3409C735.782 -40.241 763.571 -12.6995 755.566 13.1085C748.549 35.7334 699.083 54.3631 685.657 71.3114C672.42 88.0211 650.4 83.0559 632.019 83.6768C598.417 109.945 569.225 79.9033 556.011 61.9635C542.247 43.276 506.68 46.1853 499.886 21.7938C492.619 -4.30111 532.285 -38.6848 537.138 -65.7243C541.826 -91.8465 572.918 -87.6592 591.976 -97.5253C605.376 -104.463 617.665 -116.507 632.019 -114.844Z" fill="#591E2E"/>
<path fill-rule="evenodd" clip-rule="evenodd" d="M-85.2533 309.296C-101.796 273.126 -99.8744 234.077 -107.583 195.057C-117.23 146.231 -154.323 98.5018 -136.046 52.209C-117.236 4.56488 -66.0023 -27.0331 -15.8285 -37.3469C31.3869 -47.0526 72.1535 -1.66276 120.342 -0.494432C196.084 1.34193 275.333 -67.7439 340.271 -28.7133C402.62 8.76178 433.939 104.611 408.766 172.862C382.77 243.347 275.436 236.495 222.716 290.016C186.197 327.09 201.649 399.869 157.703 427.741C112.289 456.544 48.6913 454.613 0.351731 431.047C-45.3611 408.761 -64.1007 355.544 -85.2533 309.296Z" fill="#F2BFBB"/>
<path fill-rule="evenodd" clip-rule="evenodd" d="M-91.2533 3063.3C-107.796 3027.13 -105.874 2988.08 -113.583 2949.06C-123.23 2900.23 -160.323 2852.5 -142.046 2806.21C-123.236 2758.56 -72.0023 2726.97 -21.8285 2716.65C25.3869 2706.95 66.1535 2752.34 114.342 2753.51C190.084 2755.34 269.333 2686.26 334.271 2725.29C396.62 2762.76 427.939 2858.61 402.766 2926.86C376.77 2997.35 269.436 2990.5 216.716 3044.02C180.197 3081.09 195.649 3153.87 151.703 3181.74C106.289 3210.54 42.6913 3208.61 -5.64827 3185.05C-51.3611 3162.76 -70.1007 3109.54 -91.2533 3063.3Z" fill="#F2BFBB"/>
<path fill-rule="evenodd" clip-rule="evenodd" d="M1352.75 4783.3C1336.2 4747.13 1338.13 4708.08 1330.42 4669.06C1320.77 4620.23 1283.68 4572.5 1301.95 4526.21C1320.76 4478.57 1372 4446.97 1422.17 4436.65C1469.39 4426.95 1510.15 4472.34 1558.34 4473.51C1634.08 4475.34 1713.33 4406.26 1778.27 4445.29C1840.62 4482.76 1871.94 4578.61 1846.77 4646.86C1820.77 4717.35 1713.44 4710.5 1660.72 4764.02C1624.2 4801.09 1639.65 4873.87 1595.7 4901.74C1550.29 4930.54 1486.69 4928.61 1438.35 4905.05C1392.64 4882.76 1373.9 4829.54 1352.75 4783.3Z" fill="#F2BFBB"/>
<path fill-rule="evenodd" clip-rule="evenodd" d="M-396.253 5182.3C-412.796 5146.13 -410.874 5107.08 -418.583 5068.06C-428.23 5019.23 -465.323 4971.5 -447.046 4925.21C-428.236 4877.57 -377.002 4845.97 -326.829 4835.65C-279.613 4825.95 -238.846 4871.34 -190.658 4872.51C-114.916 4874.34 -35.6668 4805.26 29.2708 4844.29C91.6205 4881.76 122.939 4977.61 97.7661 5045.86C71.7697 5116.35 -35.5637 5109.5 -88.2837 5163.02C-124.803 5200.09 -109.351 5272.87 -153.297 5300.74C-198.711 5329.54 -262.309 5327.61 -310.648 5304.05C-356.361 5281.76 -375.101 5228.54 -396.253 5182.3Z" fill="#F2BFBB"/>
<path fill-rule="evenodd" clip-rule="evenodd" d="M78.8837 736.287C100.952 739.225 114.66 772.292 135.339 784.254C167.807 803.035 221.203 776.609 233.356 825.639C245.274 873.72 188.922 901.105 176.086 948.648C164.834 990.328 186.425 1048 164.896 1079.22C143.669 1110 108.358 1088.47 78.8837 1089.61C48.3705 1090.79 10.7758 1119.07 -10.4137 1086.02C-32.4862 1051.6 -2.22969 991.042 -13.1232 946.109C-24.7775 898.037 -81.0461 876.587 -73.2645 826.775C-65.7469 778.653 -15.8892 786.367 14.671 768.192C36.1595 755.412 55.8666 733.223 78.8837 736.287Z" fill="#591E2E"/>
<path fill-rule="evenodd" clip-rule="evenodd" d="M-2.1163 3495.29C19.9523 3498.22 33.6599 3531.29 54.3385 3543.25C86.8072 3562.03 140.203 3535.61 152.356 3584.64C164.274 3632.72 107.922 3660.1 95.0863 3707.65C83.834 3749.33 105.425 3807 83.8955 3838.22C62.6688 3869 27.3583 3847.47 -2.1163 3848.61C-32.6295 3849.79 -70.2242 3878.07 -91.4137 3845.02C-113.486 3810.6 -83.2297 3750.04 -94.1232 3705.11C-105.777 3657.04 -162.046 3635.59 -154.264 3585.78C-146.747 3537.65 -96.8892 3545.37 -66.329 3527.19C-44.8405 3514.41 -25.1334 3492.22 -2.1163 3495.29Z" fill="#591E2E"/>
<path fill-rule="evenodd" clip-rule="evenodd" d="M51.3526 4521.87C71.1345 4532.09 72.8762 4567.84 88.3039 4586.08C112.528 4614.72 171.71 4607.87 166.6 4658.12C161.589 4707.4 99.3012 4714.16 71.1715 4754.58C46.5113 4790.02 47.3695 4851.59 16.5648 4873.71C-13.8063 4895.52 -39.7748 4863.33 -67.9057 4854.46C-97.0278 4845.28 -141.961 4859.21 -150.752 4820.94C-159.909 4781.09 -110.989 4734.3 -106.077 4688.33C-100.821 4639.14 -146.547 4599.96 -122.409 4555.7C-99.09 4512.94 -54.762 4537.03 -19.8605 4530.23C4.68061 4525.46 30.7204 4511.22 51.3526 4521.87Z" fill="#591E2E"/>
<path fill-rule="evenodd" clip-rule="evenodd" d="M1502.93 3164.32C1531.21 3167.65 1548.78 3205.05 1575.28 3218.58C1616.89 3239.83 1685.32 3209.93 1700.89 3265.4C1716.17 3319.78 1643.95 3350.76 1627.5 3404.54C1613.08 3451.68 1640.75 3516.92 1613.16 3552.23C1585.95 3587.05 1540.7 3562.69 1502.93 3563.98C1463.82 3565.32 1415.64 3597.31 1388.49 3559.93C1360.2 3520.99 1398.98 3452.49 1385.02 3401.66C1370.08 3347.29 1297.97 3323.02 1307.94 3266.68C1317.58 3212.25 1381.47 3220.97 1420.64 3200.41C1448.18 3185.96 1473.43 3160.86 1502.93 3164.32Z" fill="#591E2E"/>
<path fill-rule="evenodd" clip-rule="evenodd" d="M315.89 786.25C252.229 795.935 209.84 721.397 151.601 693.924C95.4964 667.458 22.5761 675.846 -17.8657 628.808C-60.8856 578.771 -90.8655 502.457 -65.3279 441.611C-39.5721 380.246 51.5886 385.543 102.316 342.463C142.123 308.657 150.657 248.727 194.751 220.742C253.001 183.771 323.514 136.075 387.72 161.321C451.681 186.472 462.42 271.956 487.615 335.899C508.915 389.96 530.069 444.855 522.114 502.413C514.334 558.707 477.692 603.421 444.288 649.397C406.598 701.271 379.282 776.606 315.89 786.25Z" fill="#8C4250"/>
<path fill-rule="evenodd" clip-rule="evenodd" d="M1394.09 281.81C1422.92 276.711 1441.21 221.761 1466.37 236.504C1490.41 250.591 1448.04 288.538 1452.04 315.762C1454.89 335.209 1482.62 343.773 1484.98 363.284C1487.88 387.301 1485.47 416.732 1466.04 431.574C1446.63 446.401 1415.74 444.161 1394.09 432.703C1374.54 422.354 1374.7 395.137 1362.62 376.829C1356.29 367.225 1344.11 362.259 1340.44 351.395C1336.76 340.495 1342.96 329.342 1342.72 317.86C1342.3 297.741 1321.87 270.806 1338.53 259.112C1355.26 247.371 1373.86 285.388 1394.09 281.81Z" fill="#8C6764"/>
</g>
</g>
<defs>
<clipPath id="clip0_93_142">
<rect width="1440" height="6002" fill="white"/>
</clipPath>
<clipPath id="clip1_93_142">
<rect width="1440" height="6002" fill="white"/>
</clipPath>
</defs>
</svg>
