<svg width="102" height="102" viewBox="0 0 102 102" fill="none" xmlns="http://www.w3.org/2000/svg">
<g clip-path="url(#clip0_60_307)">
<path d="M25.865 101.639C21.9197 101.595 18.0115 100.871 14.312 99.5C11.6104 98.5014 9.16621 96.9116 7.158 94.847C5.08777 92.8428 3.49568 90.3979 2.5 87.694C1.12975 83.9946 0.407182 80.0868 0.364 76.142C0.061 69.584 0 67.617 0 51C0 34.383 0.067 32.423 0.361 25.86C0.409423 21.9168 1.13288 18.011 2.5 14.312C3.50053 11.61 5.09036 9.16479 7.154 7.154C9.15973 5.08563 11.6051 3.49502 14.309 2.5C18.0085 1.12862 21.9167 0.405028 25.862 0.361C32.422 0.061 34.392 0 51 0C67.608 0 69.577 0.067 76.14 0.361C80.0842 0.40908 83.9911 1.13255 87.691 2.5C90.3937 3.49634 92.8384 5.08639 94.845 7.153C96.9122 9.16024 98.503 11.6056 99.5 14.309C100.872 18.0085 101.596 21.9167 101.64 25.862C101.94 32.425 102.001 34.39 102.001 51.002C102.001 67.614 101.94 69.579 101.64 76.142C101.592 80.0867 100.869 83.994 99.5 87.694C98.4648 90.3772 96.8792 92.8139 94.8454 94.8472C92.8115 96.8805 90.3744 98.4655 87.691 99.5C83.9915 100.872 80.0833 101.596 76.138 101.64C69.581 101.94 67.61 102.001 50.998 102.001C34.386 102.001 32.421 101.943 25.864 101.64" fill="url(#paint0_radial_60_307)"/>
<path d="M25.865 101.639C21.9197 101.595 18.0115 100.871 14.312 99.5C11.6104 98.5014 9.16621 96.9116 7.158 94.847C5.08777 92.8428 3.49568 90.3979 2.5 87.694C1.12975 83.9946 0.407182 80.0868 0.364 76.142C0.061 69.584 0 67.617 0 51C0 34.383 0.067 32.423 0.361 25.86C0.409423 21.9168 1.13288 18.011 2.5 14.312C3.50053 11.61 5.09036 9.16479 7.154 7.154C9.15973 5.08563 11.6051 3.49502 14.309 2.5C18.0085 1.12862 21.9167 0.405028 25.862 0.361C32.422 0.061 34.392 0 51 0C67.608 0 69.577 0.067 76.14 0.361C80.0842 0.40908 83.9911 1.13255 87.691 2.5C90.3937 3.49634 92.8384 5.08639 94.845 7.153C96.9122 9.16024 98.503 11.6056 99.5 14.309C100.872 18.0085 101.596 21.9167 101.64 25.862C101.94 32.425 102.001 34.39 102.001 51.002C102.001 67.614 101.94 69.579 101.64 76.142C101.592 80.0867 100.869 83.994 99.5 87.694C98.4648 90.3772 96.8792 92.8139 94.8454 94.8472C92.8115 96.8805 90.3744 98.4655 87.691 99.5C83.9915 100.872 80.0833 101.596 76.138 101.64C69.581 101.94 67.61 102.001 50.998 102.001C34.386 102.001 32.421 101.943 25.864 101.64" fill="url(#paint1_radial_60_307)"/>
<path d="M38.264 50.891C38.2642 48.3928 39.0052 45.9507 40.3933 43.8737C41.7815 41.7966 43.7543 40.1778 46.0625 39.222C48.3706 38.2662 50.9104 38.0163 53.3605 38.504C55.8107 38.9916 58.0612 40.1949 59.8275 41.9616C61.5938 43.7283 62.7965 45.9791 63.2836 48.4294C63.7707 50.8797 63.5202 53.4194 62.5638 55.7273C61.6075 58.0352 59.9882 60.0077 57.9108 61.3953C55.8334 62.783 53.3912 63.5234 50.893 63.523C47.5432 63.5225 44.3308 62.1913 41.9625 59.8224C39.5941 57.4535 38.2637 54.2408 38.264 50.891ZM31.435 50.891C31.435 54.7394 32.5762 58.5014 34.7143 61.7013C36.8523 64.9011 39.8913 67.3951 43.4467 68.8679C47.0022 70.3406 50.9146 70.7259 54.6891 69.9751C58.4635 69.2243 61.9306 67.3711 64.6519 64.6499C67.3731 61.9286 69.2263 58.4616 69.9771 54.6871C70.7279 50.9126 70.3426 47.0002 68.8698 43.4447C67.3971 39.8892 64.9031 36.8503 61.7033 34.7122C58.5034 32.5742 54.7414 31.433 50.893 31.433C48.3377 31.4329 45.8074 31.9361 43.4466 32.9139C41.0858 33.8917 38.9407 35.3249 37.1338 37.1318C35.327 38.9387 33.8937 41.0838 32.9159 43.4446C31.9381 45.8054 31.4349 48.3357 31.435 50.891ZM66.574 30.662C66.5736 31.5613 66.8399 32.4405 67.3392 33.1885C67.8385 33.9365 68.5484 34.5196 69.3791 34.8641C70.2098 35.2086 71.124 35.2991 72.0061 35.124C72.8882 34.949 73.6986 34.5162 74.3348 33.8806C74.971 33.245 75.4044 32.435 75.5802 31.553C75.7561 30.6711 75.6664 29.7568 75.3226 28.9258C74.9788 28.0948 74.3964 27.3844 73.6488 26.8844C72.9013 26.3845 72.0223 26.1174 71.123 26.117C69.9176 26.1175 68.7616 26.5965 67.9091 27.4487C67.0565 28.3008 66.577 29.4566 66.576 30.662M35.586 81.736C33.1831 81.7096 30.8027 81.2698 28.549 80.436C26.9146 79.806 25.4302 78.8408 24.1913 77.6025C22.9525 76.3642 21.9866 74.8802 21.356 73.246C20.5218 70.9924 20.082 68.6119 20.056 66.209C19.872 62.215 19.836 61.015 19.836 50.896C19.836 40.777 19.876 39.58 20.056 35.582C20.0852 33.1794 20.5248 30.7994 21.356 28.545C21.9859 26.9101 22.9515 25.4253 24.1904 24.1864C25.4293 22.9475 26.9141 21.9819 28.549 21.352C30.8026 20.5178 33.1831 20.078 35.586 20.052C39.58 19.868 40.78 19.832 50.895 19.832C61.01 19.832 62.211 19.871 66.209 20.053C68.6116 20.0822 70.9916 20.5218 73.246 21.353C74.8809 21.983 76.3657 22.9485 77.6046 24.1874C78.8435 25.4263 79.809 26.9111 80.439 28.546C81.2732 30.7996 81.7129 33.1801 81.739 35.583C81.923 39.583 81.959 40.777 81.959 50.897C81.959 61.017 81.922 62.213 81.739 66.211C81.711 68.6137 81.2713 70.9939 80.439 73.248C79.8083 74.8821 78.8425 76.3662 77.6037 77.6045C76.3648 78.8428 74.8804 79.808 73.246 80.438C70.9924 81.2722 68.6119 81.712 66.209 81.738C62.215 81.922 61.015 81.958 50.895 81.958C40.775 81.958 39.579 81.921 35.586 81.738M35.272 13.229C32.1278 13.2908 29.017 13.8859 26.072 14.989C23.5545 15.9624 21.2682 17.4511 19.3596 19.3596C17.4511 21.2682 15.9624 23.5545 14.989 26.072C13.8861 29.017 13.291 32.1279 13.229 35.272C13.042 39.312 13 40.604 13 50.895C13 61.186 13.043 62.477 13.229 66.518C13.291 69.6622 13.8861 72.773 14.989 75.718C15.9624 78.2355 17.4511 80.5217 19.3597 82.4303C21.2682 84.3389 23.5545 85.8276 26.072 86.801C29.0171 87.9035 32.1279 88.4987 35.272 88.561C39.314 88.745 40.604 88.79 50.895 88.79C61.186 88.79 62.477 88.747 66.518 88.561C69.6621 88.4989 72.7729 87.9038 75.718 86.801C78.2355 85.8276 80.5217 84.3389 82.4303 82.4303C84.3389 80.5217 85.8276 78.2355 86.801 75.718C87.9054 72.7734 88.5005 69.6623 88.561 66.518C88.745 62.475 88.787 61.186 88.787 50.895C88.787 40.604 88.744 39.313 88.561 35.272C88.4992 32.1278 87.9041 29.017 86.801 26.072C85.8276 23.555 84.3393 21.269 82.4313 19.3605C80.5233 17.452 78.2378 15.963 75.721 14.989C72.7762 13.8852 69.6652 13.2901 66.521 13.229C62.48 13.044 61.189 13 50.9 13C40.611 13 39.317 13.043 35.274 13.229" fill="white"/>
</g>
<defs>
<radialGradient id="paint0_radial_60_307" cx="0" cy="0" r="1" gradientUnits="userSpaceOnUse" gradientTransform="translate(6.601 99.766) scale(129.502)">
<stop offset="0.09" stop-color="#FA8F21"/>
<stop offset="0.78" stop-color="#D82D7E"/>
</radialGradient>
<radialGradient id="paint1_radial_60_307" cx="0" cy="0" r="1" gradientUnits="userSpaceOnUse" gradientTransform="translate(70.652 96.49) scale(113.963)">
<stop offset="0.64" stop-color="#8C3AAA" stop-opacity="0"/>
<stop offset="1" stop-color="#8C3AAA"/>
</radialGradient>
<clipPath id="clip0_60_307">
<rect width="102" height="102" fill="white"/>
</clipPath>
</defs>
</svg>
